<?xml version="1.0" encoding="utf-8"?>
<!-- Generator: Adobe Illustrator 27.0.0, SVG Export Plug-In . SVG Version: 6.00 Build 0)  -->
<svg version="1.1" id="Layer_1" xmlns="http://www.w3.org/2000/svg" xmlns:xlink="http://www.w3.org/1999/xlink" x="0px" y="0px"
	 viewBox="0 0 286.4 287.9" style="enable-background:new 0 0 286.4 287.9;" xml:space="preserve">
<style type="text/css">
	.st0{fill:#FFFFFF;}
</style>
<path id="Path_11" class="st0" d="M275.6,198c-13.1,33.2-38.2,60.2-70.3,75.7C96.6,325-22.3,228.9,3.6,112
	C30.4-4.6,179.2-39.8,255.1,52.8c22.3,27.8,33.4,62.9,31,98.5l-0.3,0c0.2-17.5-2.1-35-7.8-51.4c-16.6-49.4-62.5-87.1-114.3-93.2
	C94.1-3,24.8,44.4,10.4,113.6c-15.7,68.9,24.8,141,92.5,162.3C172.7,298.4,245.5,263.6,275.6,198"/>
</svg>
